<?xml version="1.0" encoding="UTF-8"?>
<svg version="1.1" viewBox="0 0 100 100" xmlns="http://www.w3.org/2000/svg">
 <path color="currentColor" d="m82.777 33.891-8.668-8.668c-0.77734-0.77734-1.8906-0.77734-2.668 0l-1.4453 1.4453s-0.10938 0-0.10938 0.10938l-27.445 27.555-12.332-12.332c-0.22266-0.22266-0.44531-0.44531-0.77734-0.55469l-0.89062-0.89062c-0.77734-0.77734-1.8906-0.77734-2.668 0l-8.668 8.668c-0.77734 0.77734-0.77734 1.8906 0 2.668l22.336 22.336c1 1 2.1094 1.332 3.668 1.1094 0.77734-0.10938 1.4453-0.55469 2.1094-1.1094l37.559-37.559c0.77734-0.89062 0.77734-2 0-2.7773z"/>
</svg>
