<svg xmlns="http://www.w3.org/2000/svg" version="1.1" xmlns:xlink="http://www.w3.org/1999/xlink" xmlns:svgjs="http://svgjs.com/svgjs" width="32" height="32"><svg id="SvgjsSvg1000" data-name="Layer 1" xmlns="http://www.w3.org/2000/svg" viewBox="0 0 32 20.49"><defs><style>.cls-1{fill:#000000;}</style></defs><path class="cls-1" d="M206.58,302.73h.87c2.38-3.53,5.73-8.85,8-12.43.55,4,1.28,8.53,1.83,12.43h.92a146.47,146.47,0,0,0,10-13.39c1.15-2,1.56-3.12,1.56-4.4,0-1.6-.5-2.7-1.7-2.7a4.07,4.07,0,0,0-3.11,2.33,1,1,0,0,0,.14.83,6.35,6.35,0,0,1,1,2.84c0,2.11-1.93,5.41-4.72,9.17-.74-4.4-1.47-9.26-2.11-14.49h-.87c-2.52,4.59-5.14,9.35-7.57,13,0-1.84,0-5-.13-7.93-.14-3.85-.6-5.73-2-5.73-1.7,0-4.54,2.2-6.42,4.81l.37.55c1-1.06,1.88-1.7,2.29-1.7s.73.64,1,3.44C206.16,293.28,206.39,299.61,206.58,302.73Z" transform="translate(-202.22 -282.24)"></path><path class="cls-1" d="M234.22,299.43a2.72,2.72,0,0,0-2.7-2.89,3.18,3.18,0,0,0-3.12,3.34,2.65,2.65,0,0,0,2.66,2.85A3,3,0,0,0,234.22,299.43Z" transform="translate(-202.22 -282.24)"></path></svg><style>@media (prefers-color-scheme: light) { :root { filter: none; } }
@media (prefers-color-scheme: dark) { :root { filter: none; } .cls-1 { fill: #ffffff; } }
</style></svg>