<?xml version="1.0" encoding="UTF-8"?>
<svg version="1.1" viewBox="0 0 100 100" xmlns="http://www.w3.org/2000/svg">
 <path d="m68 49.555 13.555-7.7773c0.22266-0.10938 0.33203-0.44531 0.22266-0.77734l-2.2227-3.8906v-0.10938c-0.10938-0.22266-0.22266-0.55469-0.33203-0.77734l-2.668-4.5547c-0.10938-0.22266-0.33203-0.55469-0.55469-0.77734l-2.2227-3.8906c-0.10938-0.22266-0.44531-0.33203-0.77734-0.22266l-13.555 7.7773c-0.33203 0.22266-0.89062 0-0.89062-0.44531v-15.668c0-0.33203-0.22266-0.55469-0.55469-0.55469h-15.996c-0.33203 0-0.55469 0.22266-0.55469 0.55469v15.668c0 0.44531-0.44531 0.66797-0.89062 0.44531l-13.555-7.7773c-0.22266-0.10938-0.55469-0.10938-0.77734 0.22266l-2.2227 3.8906c-0.22266 0.22266-0.33203 0.44531-0.55469 0.77734l-2.668 4.5547c-0.22266 0.33203-0.33203 0.66797-0.44531 1l-2.1094 3.668c-0.10937 0.22266-0.10937 0.55469 0.22266 0.77734l13.555 7.7773c0.33203 0.22266 0.33203 0.77734 0 1l-13.555 7.7773c-0.22266 0.10938-0.33203 0.44531-0.22266 0.77734l2.2227 3.8906v0.10938c0.10938 0.22266 0.22266 0.55469 0.33203 0.77734l2.668 4.5547c0.10938 0.22266 0.33203 0.55469 0.55469 0.77734l2.2227 3.8906c0.10938 0.22266 0.44531 0.33203 0.77734 0.22266l13.555-7.7773c0.33203-0.22266 0.89062 0 0.89062 0.44531v15.668c0 0.33203 0.22266 0.55469 0.55469 0.55469h15.996c0.33203 0 0.55469-0.22266 0.55469-0.55469v-15.668c0-0.44531 0.44531-0.66797 0.89062-0.44531l13.555 7.7773c0.22266 0.10938 0.55469 0.10938 0.77734-0.22266l2.332-4.1094c0.10938-0.10938 0.22266-0.33203 0.33203-0.44531l2.668-4.5547c0.22266-0.33203 0.33203-0.66797 0.44531-1l2.1094-3.668c0.10938-0.22266 0.10938-0.55469-0.22266-0.77734l-13.555-7.7773c-0.33203-0.44531-0.33203-0.89062 0.11328-1.1133z"/>
</svg>
