<?xml version="1.0" encoding="UTF-8"?>
<svg version="1.1" viewBox="0 0 100 100" xmlns="http://www.w3.org/2000/svg">
 <path d="m92.332 39.445c0 0.77734-0.33203 1.5547-0.89062 2.1094l-24.223 24.223c-0.55469 0.55469-1.332 0.89062-2.1094 0.89062s-1.5547-0.33203-2.1094-0.89062c-0.55469-0.55469-0.89062-1.332-0.89062-2.1094v-12.109h-10.555c-3.1094 0-5.8906 0.10938-8.332 0.33203-2.4453 0.22266-4.8906 0.55469-7.332 1-2.4453 0.44531-4.5547 1.1094-6.332 2s-3.4453 2-5 3.332c-1.5547 1.332-2.7773 2.8906-3.7773 4.7773-1 1.8906-1.7773 4-2.332 6.5547-0.55469 2.5547-0.77734 5.332-0.77734 8.5547 0 1.7773 0.10938 3.668 0.22266 5.7773 0 0.22266 0 0.55469 0.10938 1.1094 0.10938 0.55469 0.10938 1 0.10938 1.2227 0 0.44531-0.10938 0.89062-0.44531 1.2227-0.22266 0.33203-0.66797 0.44531-1.1094 0.44531-0.55469 0-1-0.22266-1.332-0.77734-0.22266-0.33203-0.44531-0.66797-0.66797-1-0.22266-0.44531-0.44531-0.89062-0.66797-1.4453-0.22266-0.55469-0.44531-0.89062-0.44531-1.1094-4-9-6-16.109-6-21.332 0-6.2227 0.89063-11.555 2.5547-15.777 5.1094-12.668 18.891-19.109 41.332-19.109h10.555v-12.109c0-0.77734 0.33203-1.5547 0.89062-2.1094 0.55469-0.55469 1.332-0.89063 2.1094-0.89063 0.77734 0 1.5547 0.33203 2.1094 0.89063l24.223 24.223c0.89062 0.55078 1.1133 1.2148 1.1133 2.1055z"/>
</svg>
