<?xml version="1.0" encoding="UTF-8"?>
<svg width="auto" height="auto" version="1.1" viewBox="0 0 1200 1200" xmlns="http://www.w3.org/2000/svg">
 <path d="m600 112.5c-268.78 0-487.5 218.72-487.5 487.5s218.72 487.5 487.5 487.5 487.5-218.72 487.5-487.5-218.72-487.5-487.5-487.5zm0 900c-227.44 0-412.5-185.06-412.5-412.5s185.06-412.5 412.5-412.5 412.5 185.06 412.5 412.5-185.06 412.5-412.5 412.5zm187.31-533.81c3.6562 79.406-43.312 152.72-116.81 182.63-19.688 7.9688-33 28.594-33 51.281 0 20.719-16.781 37.5-37.5 37.5s-37.5-16.781-37.5-37.5c0-53.719 31.312-101.16 79.781-120.74 44.156-17.906 72.281-61.969 70.125-109.69-2.625-57.375-49.594-104.34-106.97-106.97-31.125-1.5-60.562 9.5625-83.062 31.031-22.5 21.375-34.875 50.25-34.875 81.281 0 20.719-16.781 37.5-37.5 37.5s-37.5-16.781-37.5-37.5c0-51.75 20.625-99.844 58.031-135.66 37.406-35.719 86.719-54.094 138.28-51.656 95.719 4.4062 174.1 82.781 178.5 178.5zm-149.81 365.06v18.75c0 20.719-16.781 37.5-37.5 37.5s-37.5-16.781-37.5-37.5v-18.75c0-20.719 16.781-37.5 37.5-37.5s37.5 16.781 37.5 37.5z"/>
</svg>
